{
	"asset":{
		"copyright":"Monstrous",
		"generator":"Khronos glTF Blender I/O v3.5.30",
		"version":"2.0"
	},
	"extensionsUsed":[
		"KHR_materials_ior",
		"KHR_materials_specular"
	],
	"scene":0,
	"scenes":[
		{
			"name":"Scene",
			"nodes":[
				0,
				1,
				2,
				3,
				4,
				5,
				6,
				7,
				8,
				9,
				10,
				11,
				12,
				13,
				14,
				15,
				16,
				17,
				18,
				19,
				20,
				21,
				22,
				23,
				24,
				25,
				26,
				27,
				28,
				29,
				30,
				31,
				32,
				33,
				34,
				35,
				36,
				37,
				38,
				39,
				40,
				41,
				42,
				43,
				44,
				45,
				46,
				47,
				48
			]
		}
	],
	"nodes":[
		{
			"mesh":0,
			"name":"ducky.LOD0",
			"scale":[
				0.10000002384185791,
				0.10000002384185791,
				0.10000002384185791
			],
			"translation":[
				4.7976531982421875,
				0.26586514711380005,
				7.6026153564453125
			]
		},
		{
			"mesh":1,
			"name":"simplePalm.LOD0",
			"scale":[
				0.10000002384185791,
				0.10000002384185791,
				0.10000002384185791
			],
			"translation":[
				0.7976531982421875,
				0.26586514711380005,
				93.7693099975586
			]
		},
		{
			"mesh":2,
			"name":"simplePalm.LOD1",
			"scale":[
				0.10000002384185791,
				0.10000002384185791,
				0.10000002384185791
			],
			"translation":[
				0.7976531982421875,
				0.26586514711380005,
				2.6026153564453125
			]
		},
		{
			"mesh":3,
			"name":"simplePalm.LOD2",
			"scale":[
				0.10000002384185791,
				0.10000002384185791,
				0.10000002384185791
			],
			"translation":[
				0.7976531982421875,
				0.26586514711380005,
				-2.3973770141601562
			]
		},
		{
			"mesh":4,
			"name":"groundPlane",
			"scale":[
				160.00003051757812,
				0.10000002384185791,
				160.00003051757812
			],
			"translation":[
				0.7976531982421875,
				0.16586518287658691,
				7.6026153564453125
			]
		},
		{
			"mesh":1,
			"name":"simplePalm.LOD0.001",
			"scale":[
				0.10000002384185791,
				0.10000002384185791,
				0.10000002384185791
			],
			"translation":[
				-19.73633575439453,
				0.26586514711380005,
				93.7693099975586
			]
		},
		{
			"mesh":1,
			"name":"simplePalm.LOD0.002",
			"scale":[
				0.10000002384185791,
				0.10000002384185791,
				0.10000002384185791
			],
			"translation":[
				0.7976531982421875,
				0.26586514711380005,
				107.97505187988281
			]
		},
		{
			"mesh":1,
			"name":"simplePalm.LOD0.003",
			"scale":[
				0.10000002384185791,
				0.10000002384185791,
				0.10000002384185791
			],
			"translation":[
				38.350120544433594,
				0.26586514711380005,
				93.7693099975586
			]
		},
		{
			"mesh":3,
			"name":"simplePalm.LOD2.001",
			"scale":[
				0.10000002384185791,
				0.10000002384185791,
				0.10000002384185791
			],
			"translation":[
				38.350120544433594,
				0.26586514711380005,
				-2.3973770141601562
			]
		},
		{
			"mesh":1,
			"name":"simplePalm.LOD0.004",
			"scale":[
				0.10000002384185791,
				0.10000002384185791,
				0.10000002384185791
			],
			"translation":[
				17.816139221191406,
				0.26586514711380005,
				93.7693099975586
			]
		},
		{
			"mesh":1,
			"name":"simplePalm.LOD0.005",
			"scale":[
				0.10000002384185791,
				0.10000002384185791,
				0.10000002384185791
			],
			"translation":[
				38.350120544433594,
				0.26586514711380005,
				107.97505187988281
			]
		},
		{
			"mesh":1,
			"name":"simplePalm.LOD0.006",
			"rotation":[
				0,
				0.523672342300415,
				0,
				0.8519197702407837
			],
			"scale":[
				0.10000002384185791,
				0.10000002384185791,
				0.10000002384185791
			],
			"translation":[
				34.59642791748047,
				0.26586514711380005,
				46.409637451171875
			]
		},
		{
			"mesh":3,
			"name":"simplePalm.LOD2.002",
			"rotation":[
				0,
				0.523672342300415,
				0,
				0.8519197702407837
			],
			"scale":[
				0.10000002384185791,
				0.10000002384185791,
				0.10000002384185791
			],
			"translation":[
				25.673912048339844,
				0.26586514711380005,
				-44.272377014160156
			]
		},
		{
			"mesh":1,
			"name":"simplePalm.LOD0.007",
			"rotation":[
				0,
				0.523672342300415,
				0,
				0.8519197702407837
			],
			"scale":[
				0.10000002384185791,
				0.10000002384185791,
				0.10000002384185791
			],
			"translation":[
				25.32463836669922,
				0.26586514711380005,
				64.73118591308594
			]
		},
		{
			"mesh":1,
			"name":"simplePalm.LOD0.008",
			"rotation":[
				0,
				0.523672342300415,
				0,
				0.8519197702407837
			],
			"scale":[
				0.10000002384185791,
				0.10000002384185791,
				0.10000002384185791
			],
			"translation":[
				47.271568298339844,
				0.26586514711380005,
				52.82405090332031
			]
		},
		{
			"mesh":1,
			"name":"simplePalm.LOD0.009",
			"rotation":[
				0,
				0.523672342300415,
				0,
				0.8519197702407837
			],
			"scale":[
				0.10000002384185791,
				0.10000002384185791,
				0.10000002384185791
			],
			"translation":[
				-31.26117706298828,
				0.26586514711380005,
				46.409637451171875
			]
		},
		{
			"mesh":3,
			"name":"simplePalm.LOD2.003",
			"rotation":[
				0,
				0.523672342300415,
				0,
				0.8519197702407837
			],
			"scale":[
				0.10000002384185791,
				0.10000002384185791,
				0.10000002384185791
			],
			"translation":[
				-40.18372344970703,
				0.26586514711380005,
				-44.272377014160156
			]
		},
		{
			"mesh":1,
			"name":"simplePalm.LOD0.010",
			"rotation":[
				0,
				0.523672342300415,
				0,
				0.8519197702407837
			],
			"scale":[
				0.10000002384185791,
				0.10000002384185791,
				0.10000002384185791
			],
			"translation":[
				-40.532997131347656,
				0.26586514711380005,
				-21.435508728027344
			]
		},
		{
			"mesh":1,
			"name":"simplePalm.LOD0.011",
			"rotation":[
				0,
				0.523672342300415,
				0,
				0.8519197702407837
			],
			"scale":[
				0.10000002384185791,
				0.10000002384185791,
				0.10000002384185791
			],
			"translation":[
				-18.586044311523438,
				0.26586514711380005,
				-33.34264373779297
			]
		},
		{
			"mesh":1,
			"name":"simplePalm.LOD0.012",
			"scale":[
				0.10000002384185791,
				0.10000002384185791,
				0.10000002384185791
			],
			"translation":[
				-41.21338653564453,
				0.26586514711380005,
				7.6026153564453125
			]
		},
		{
			"mesh":3,
			"name":"simplePalm.LOD2.004",
			"scale":[
				0.10000002384185791,
				0.10000002384185791,
				0.10000002384185791
			],
			"translation":[
				-41.21338653564453,
				0.26586514711380005,
				-2.3973770141601562
			]
		},
		{
			"mesh":1,
			"name":"simplePalm.LOD0.013",
			"scale":[
				0.10000002384185791,
				0.10000002384185791,
				0.10000002384185791
			],
			"translation":[
				-61.74738311767578,
				0.26586514711380005,
				7.6026153564453125
			]
		},
		{
			"mesh":1,
			"name":"simplePalm.LOD0.014",
			"scale":[
				0.10000002384185791,
				0.10000002384185791,
				0.10000002384185791
			],
			"translation":[
				-41.21338653564453,
				0.26586514711380005,
				21.80835723876953
			]
		},
		{
			"mesh":1,
			"name":"simplePalm.LOD0.015",
			"rotation":[
				0,
				0.523672342300415,
				0,
				0.8519197702407837
			],
			"scale":[
				0.10000002384185791,
				0.10000002384185791,
				0.10000002384185791
			],
			"translation":[
				-54.238868713378906,
				0.26586514711380005,
				-21.435508728027344
			]
		},
		{
			"mesh":1,
			"name":"simplePalm.LOD0.016",
			"rotation":[
				0,
				0.523672342300415,
				0,
				0.8519197702407837
			],
			"scale":[
				0.10000002384185791,
				0.10000002384185791,
				0.10000002384185791
			],
			"translation":[
				-32.291954040527344,
				0.26586514711380005,
				-33.34264373779297
			]
		},
		{
			"mesh":1,
			"name":"simplePalm.LOD0.017",
			"rotation":[
				0,
				-0.36758291721343994,
				0,
				0.9299907684326172
			],
			"scale":[
				0.10000002384185791,
				0.10000002384185791,
				0.10000002384185791
			],
			"translation":[
				-102.2386703491211,
				0.26586514711380005,
				80.21842956542969
			]
		},
		{
			"mesh":1,
			"name":"simplePalm.LOD0.018",
			"rotation":[
				0,
				-0.36758291721343994,
				0,
				0.9299907684326172
			],
			"scale":[
				0.10000002384185791,
				0.10000002384185791,
				0.10000002384185791
			],
			"translation":[
				-117.22367095947266,
				0.26586514711380005,
				66.17938995361328
			]
		},
		{
			"mesh":1,
			"name":"simplePalm.LOD0.019",
			"rotation":[
				0,
				-0.36758291721343994,
				0,
				0.9299907684326172
			],
			"scale":[
				0.10000002384185791,
				0.10000002384185791,
				0.10000002384185791
			],
			"translation":[
				-111.95110321044922,
				0.26586514711380005,
				90.58528900146484
			]
		},
		{
			"mesh":1,
			"name":"simplePalm.LOD0.020",
			"rotation":[
				0,
				-0.36758291721343994,
				0,
				0.9299907684326172
			],
			"scale":[
				0.10000002384185791,
				0.10000002384185791,
				0.10000002384185791
			],
			"translation":[
				-74.83417510986328,
				0.26586514711380005,
				105.89295959472656
			]
		},
		{
			"mesh":1,
			"name":"simplePalm.LOD0.021",
			"rotation":[
				0,
				-0.36758291721343994,
				0,
				0.9299907684326172
			],
			"scale":[
				0.10000002384185791,
				0.10000002384185791,
				0.10000002384185791
			],
			"translation":[
				-89.81916809082031,
				0.26586514711380005,
				91.85392761230469
			]
		},
		{
			"mesh":1,
			"name":"simplePalm.LOD0.022",
			"rotation":[
				0,
				-0.36758291721343994,
				0,
				0.9299907684326172
			],
			"scale":[
				0.10000002384185791,
				0.10000002384185791,
				0.10000002384185791
			],
			"translation":[
				-84.54660034179688,
				0.26586514711380005,
				116.25981903076172
			]
		},
		{
			"mesh":1,
			"name":"simplePalm.LOD0.023",
			"rotation":[
				0,
				0.17385931313037872,
				0,
				0.9847705960273743
			],
			"scale":[
				0.10000002384185791,
				0.10000002384185791,
				0.10000002384185791
			],
			"translation":[
				-45.19380187988281,
				0.26586514711380005,
				68.76510620117188
			]
		},
		{
			"mesh":1,
			"name":"simplePalm.LOD0.024",
			"rotation":[
				0,
				0.17385931313037872,
				0,
				0.9847705960273743
			],
			"scale":[
				0.10000002384185791,
				0.10000002384185791,
				0.10000002384185791
			],
			"translation":[
				-64.4864273071289,
				0.26586514711380005,
				75.79644012451172
			]
		},
		{
			"mesh":1,
			"name":"simplePalm.LOD0.025",
			"rotation":[
				0,
				0.17385931313037872,
				0,
				0.9847705960273743
			],
			"scale":[
				0.10000002384185791,
				0.10000002384185791,
				0.10000002384185791
			],
			"translation":[
				-40.329437255859375,
				0.26586514711380005,
				82.1120834350586
			]
		},
		{
			"mesh":1,
			"name":"simplePalm.LOD0.026",
			"rotation":[
				0,
				0.17385931313037872,
				0,
				0.9847705960273743
			],
			"scale":[
				0.10000002384185791,
				0.10000002384185791,
				0.10000002384185791
			],
			"translation":[
				-93.25440979003906,
				0.26586514711380005,
				23.738426208496094
			]
		},
		{
			"mesh":1,
			"name":"simplePalm.LOD0.027",
			"rotation":[
				0,
				-0.36758291721343994,
				0,
				0.9299907684326172
			],
			"scale":[
				0.10000002384185791,
				0.10000002384185791,
				0.10000002384185791
			],
			"translation":[
				-102.2386703491211,
				0.26586514711380005,
				-66.59445190429688
			]
		},
		{
			"mesh":1,
			"name":"simplePalm.LOD0.028",
			"rotation":[
				0,
				-0.36758291721343994,
				0,
				0.9299907684326172
			],
			"scale":[
				0.10000002384185791,
				0.10000002384185791,
				0.10000002384185791
			],
			"translation":[
				-117.22367095947266,
				0.26586514711380005,
				-80.63349151611328
			]
		},
		{
			"mesh":1,
			"name":"simplePalm.LOD0.029",
			"rotation":[
				0,
				-0.36758291721343994,
				0,
				0.9299907684326172
			],
			"scale":[
				0.10000002384185791,
				0.10000002384185791,
				0.10000002384185791
			],
			"translation":[
				-111.95110321044922,
				0.26586514711380005,
				-56.22759246826172
			]
		},
		{
			"mesh":1,
			"name":"simplePalm.LOD0.030",
			"rotation":[
				0,
				-0.36758291721343994,
				0,
				0.9299907684326172
			],
			"scale":[
				0.10000002384185791,
				0.10000002384185791,
				0.10000002384185791
			],
			"translation":[
				-74.83417510986328,
				0.26586514711380005,
				-40.919921875
			]
		},
		{
			"mesh":1,
			"name":"simplePalm.LOD0.031",
			"rotation":[
				0,
				-0.36758291721343994,
				0,
				0.9299907684326172
			],
			"scale":[
				0.10000002384185791,
				0.10000002384185791,
				0.10000002384185791
			],
			"translation":[
				-89.81916809082031,
				0.26586514711380005,
				-54.958953857421875
			]
		},
		{
			"mesh":1,
			"name":"simplePalm.LOD0.032",
			"rotation":[
				0,
				-0.36758291721343994,
				0,
				0.9299907684326172
			],
			"scale":[
				0.10000002384185791,
				0.10000002384185791,
				0.10000002384185791
			],
			"translation":[
				-84.54660034179688,
				0.26586514711380005,
				-30.553062438964844
			]
		},
		{
			"mesh":1,
			"name":"simplePalm.LOD0.033",
			"rotation":[
				0,
				0.17385931313037872,
				0,
				0.9847705960273743
			],
			"scale":[
				0.10000002384185791,
				0.10000002384185791,
				0.10000002384185791
			],
			"translation":[
				-45.19380187988281,
				0.26586514711380005,
				-78.04777526855469
			]
		},
		{
			"mesh":1,
			"name":"simplePalm.LOD0.034",
			"rotation":[
				0,
				0.17385931313037872,
				0,
				0.9847705960273743
			],
			"scale":[
				0.10000002384185791,
				0.10000002384185791,
				0.10000002384185791
			],
			"translation":[
				-64.4864273071289,
				0.26586514711380005,
				-71.01644134521484
			]
		},
		{
			"mesh":1,
			"name":"simplePalm.LOD0.035",
			"rotation":[
				0,
				0.17385931313037872,
				0,
				0.9847705960273743
			],
			"scale":[
				0.10000002384185791,
				0.10000002384185791,
				0.10000002384185791
			],
			"translation":[
				-40.329437255859375,
				0.26586514711380005,
				-64.70079803466797
			]
		},
		{
			"mesh":1,
			"name":"simplePalm.LOD0.036",
			"rotation":[
				0,
				0.17385931313037872,
				0,
				0.9847705960273743
			],
			"scale":[
				0.10000002384185791,
				0.10000002384185791,
				0.10000002384185791
			],
			"translation":[
				-93.25440979003906,
				0.26586514711380005,
				-123.07445526123047
			]
		},
		{
			"mesh":0,
			"name":"ducky.LOD0.001",
			"scale":[
				0.10000002384185791,
				0.10000002384185791,
				0.10000002384185791
			],
			"translation":[
				6.409482955932617,
				0.26586514711380005,
				7.6026153564453125
			]
		},
		{
			"mesh":0,
			"name":"ducky.LOD0.002",
			"scale":[
				0.10000002384185791,
				0.10000002384185791,
				0.10000002384185791
			],
			"translation":[
				7.887853622436523,
				0.26586514711380005,
				7.6026153564453125
			]
		},
		{
			"mesh":0,
			"name":"ducky.LOD0.003",
			"scale":[
				0.10000002384185791,
				0.10000002384185791,
				0.10000002384185791
			],
			"translation":[
				4.7976531982421875,
				0.26586514711380005,
				-55.200748443603516
			]
		},
		{
			"mesh":0,
			"name":"ducky.LOD0.004",
			"scale":[
				0.10000002384185791,
				0.10000002384185791,
				0.10000002384185791
			],
			"translation":[
				4.7976531982421875,
				0.26586514711380005,
				23.562702178955078
			]
		}
	],
	"materials":[
		{
			"extensions":{
				"KHR_materials_specular":{
					"specularColorFactor":[
						0,
						0,
						0
					]
				},
				"KHR_materials_ior":{
					"ior":1.4500000476837158
				}
			},
			"name":"matte",
			"pbrMetallicRoughness":{
				"baseColorTexture":{
					"index":0
				},
				"metallicFactor":0,
				"roughnessFactor":0.5
			}
		},
		{
			"extensions":{
				"KHR_materials_specular":{
					"specularColorFactor":[
						0,
						0,
						0
					]
				},
				"KHR_materials_ior":{
					"ior":1.4500000476837158
				}
			},
			"name":"ground",
			"pbrMetallicRoughness":{
				"baseColorFactor":[
					0.6382717490196228,
					0.5005105137825012,
					0.12881064414978027,
					1
				],
				"metallicFactor":0,
				"roughnessFactor":0.5
			}
		}
	],
	"meshes":[
		{
			"name":"Cube.003",
			"primitives":[
				{
					"attributes":{
						"POSITION":0,
						"TEXCOORD_0":1,
						"NORMAL":2
					},
					"indices":3,
					"material":0
				}
			]
		},
		{
			"name":"Cylinder.013",
			"primitives":[
				{
					"attributes":{
						"POSITION":4,
						"TEXCOORD_0":5,
						"NORMAL":6
					},
					"indices":7,
					"material":0
				}
			]
		},
		{
			"name":"Cylinder.006",
			"primitives":[
				{
					"attributes":{
						"POSITION":8,
						"TEXCOORD_0":9,
						"NORMAL":10
					},
					"indices":11,
					"material":0
				}
			]
		},
		{
			"name":"Cylinder.007",
			"primitives":[
				{
					"attributes":{
						"POSITION":12,
						"TEXCOORD_0":13,
						"NORMAL":14
					},
					"indices":15,
					"material":0
				}
			]
		},
		{
			"name":"Cube.004",
			"primitives":[
				{
					"attributes":{
						"POSITION":16,
						"TEXCOORD_0":17,
						"NORMAL":18
					},
					"indices":19,
					"material":1
				}
			]
		}
	],
	"textures":[
		{
			"sampler":0,
			"source":0
		}
	],
	"images":[
		{
			"mimeType":"image/png",
			"name":"palette",
			"uri":"textures/palette.png"
		}
	],
	"accessors":[
		{
			"bufferView":0,
			"componentType":5126,
			"count":4422,
			"max":[
				6.537764549255371,
				18.992679595947266,
				5.318828105926514
			],
			"min":[
				-6.537764549255371,
				0.2747199535369873,
				-5.2085089683532715
			],
			"type":"VEC3"
		},
		{
			"bufferView":1,
			"componentType":5126,
			"count":4422,
			"type":"VEC2"
		},
		{
			"bufferView":2,
			"componentType":5126,
			"count":4422,
			"type":"VEC3"
		},
		{
			"bufferView":3,
			"componentType":5123,
			"count":21852,
			"type":"SCALAR"
		},
		{
			"bufferView":4,
			"componentType":5126,
			"count":3458,
			"max":[
				23.744861602783203,
				109.08636474609375,
				43.01551818847656
			],
			"min":[
				-43.80747604370117,
				-5.535104751586914,
				-33.64893341064453
			],
			"type":"VEC3"
		},
		{
			"bufferView":5,
			"componentType":5126,
			"count":3458,
			"type":"VEC2"
		},
		{
			"bufferView":6,
			"componentType":5126,
			"count":3458,
			"type":"VEC3"
		},
		{
			"bufferView":7,
			"componentType":5123,
			"count":6306,
			"type":"SCALAR"
		},
		{
			"bufferView":8,
			"componentType":5126,
			"count":1843,
			"max":[
				23.479585647583008,
				108.9266357421875,
				43.154136657714844
			],
			"min":[
				-43.87287902832031,
				-5.526438236236572,
				-33.85377502441406
			],
			"type":"VEC3"
		},
		{
			"bufferView":9,
			"componentType":5126,
			"count":1843,
			"type":"VEC2"
		},
		{
			"bufferView":10,
			"componentType":5126,
			"count":1843,
			"type":"VEC3"
		},
		{
			"bufferView":11,
			"componentType":5123,
			"count":2544,
			"type":"SCALAR"
		},
		{
			"bufferView":12,
			"componentType":5126,
			"count":694,
			"max":[
				21.55671501159668,
				109.20687103271484,
				42.18157958984375
			],
			"min":[
				-43.514923095703125,
				-5.367347240447998,
				-33.057552337646484
			],
			"type":"VEC3"
		},
		{
			"bufferView":13,
			"componentType":5126,
			"count":694,
			"type":"VEC2"
		},
		{
			"bufferView":14,
			"componentType":5126,
			"count":694,
			"type":"VEC3"
		},
		{
			"bufferView":15,
			"componentType":5123,
			"count":1050,
			"type":"SCALAR"
		},
		{
			"bufferView":16,
			"componentType":5126,
			"count":24,
			"max":[
				1,
				1,
				1
			],
			"min":[
				-1,
				-1,
				-1
			],
			"type":"VEC3"
		},
		{
			"bufferView":17,
			"componentType":5126,
			"count":24,
			"type":"VEC2"
		},
		{
			"bufferView":18,
			"componentType":5126,
			"count":24,
			"type":"VEC3"
		},
		{
			"bufferView":19,
			"componentType":5123,
			"count":36,
			"type":"SCALAR"
		}
	],
	"bufferViews":[
		{
			"buffer":0,
			"byteLength":53064,
			"byteOffset":0,
			"target":34962
		},
		{
			"buffer":0,
			"byteLength":35376,
			"byteOffset":53064,
			"target":34962
		},
		{
			"buffer":0,
			"byteLength":53064,
			"byteOffset":88440,
			"target":34962
		},
		{
			"buffer":0,
			"byteLength":43704,
			"byteOffset":141504,
			"target":34963
		},
		{
			"buffer":0,
			"byteLength":41496,
			"byteOffset":185208,
			"target":34962
		},
		{
			"buffer":0,
			"byteLength":27664,
			"byteOffset":226704,
			"target":34962
		},
		{
			"buffer":0,
			"byteLength":41496,
			"byteOffset":254368,
			"target":34962
		},
		{
			"buffer":0,
			"byteLength":12612,
			"byteOffset":295864,
			"target":34963
		},
		{
			"buffer":0,
			"byteLength":22116,
			"byteOffset":308476,
			"target":34962
		},
		{
			"buffer":0,
			"byteLength":14744,
			"byteOffset":330592,
			"target":34962
		},
		{
			"buffer":0,
			"byteLength":22116,
			"byteOffset":345336,
			"target":34962
		},
		{
			"buffer":0,
			"byteLength":5088,
			"byteOffset":367452,
			"target":34963
		},
		{
			"buffer":0,
			"byteLength":8328,
			"byteOffset":372540,
			"target":34962
		},
		{
			"buffer":0,
			"byteLength":5552,
			"byteOffset":380868,
			"target":34962
		},
		{
			"buffer":0,
			"byteLength":8328,
			"byteOffset":386420,
			"target":34962
		},
		{
			"buffer":0,
			"byteLength":2100,
			"byteOffset":394748,
			"target":34963
		},
		{
			"buffer":0,
			"byteLength":288,
			"byteOffset":396848,
			"target":34962
		},
		{
			"buffer":0,
			"byteLength":192,
			"byteOffset":397136,
			"target":34962
		},
		{
			"buffer":0,
			"byteLength":288,
			"byteOffset":397328,
			"target":34962
		},
		{
			"buffer":0,
			"byteLength":72,
			"byteOffset":397616,
			"target":34963
		}
	],
	"samplers":[
		{
			"magFilter":9728,
			"minFilter":9984
		}
	],
	"buffers":[
		{
			"byteLength":397688,
			"uri":"shadowTest.bin"
		}
	]
}
